inDegrees=yes
name=ik_S40_A10_T01
DataType=double
version=3
OpenSimVersion=4.3-2021-08-27-4bc7ad9
endheader
time	pelvis_tilt	pelvis_list	pelvis_rotation	pelvis_tx	pelvis_ty	pelvis_tz	hip_flexion_r	hip_adduction_r	hip_rotation_r	knee_angle_r	knee_angle_r_beta	ankle_angle_r	subtalar_angle_r	mtp_angle_r	hip_flexion_l	hip_adduction_l	hip_rotation_l	knee_angle_l	knee_angle_l_beta	ankle_angle_l	subtalar_angle_l	mtp_angle_l	lumbar_extension	lumbar_bending	lumbar_rotation	arm_flex_r	arm_add_r	arm_rot_r	elbow_flex_r	pro_sup_r	wrist_flex_r	wrist_dev_r	arm_flex_l	arm_add_l	arm_rot_l	elbow_flex_l	pro_sup_l	wrist_flex_l	wrist_dev_l
10.13999999999987	-1.899194412323242	-1.268223165396565	42.60633519143385	0	0.9399999999999999	0	44.01339316132149	-9.998827004676363	-9.987623315562756	53.12709577546199	0.9272427433041818	0	0	0	44.01339316132149	-9.998827004676363	-9.987623315562756	53.12709577546199	0.9272427433041818	0	0	0	-1.978479975824075	-0.0082996529261015	3.564418582215159	76.61064997192227	4.003414555799845	21.1231823329907	56.54562574220706	59.54874733843839	0	0	74.62150197959841	4.079774492581925	-1.313310446296468	53.04790565452754	74.15745012488094	0	0
10.15999999999987	-1.906151559815648	-1.28286118699974	42.65088633066093	0	0.9399999999999999	0	44.02766010368222	-9.998866127390905	-9.987933326544139	53.15119576724721	0.9276633675105375	0	0	0	44.02766010368222	-9.998866127390905	-9.987933326544139	53.15119576724721	0.9276633675105375	0	0	0	-1.991428354542016	-0.01293221089301521	3.60485966085295	74.12901855809407	3.004255022390674	20.02630641793072	59.56150900959835	59.97199729598759	0	0	71.71998533157587	3.468128283280786	-1.864127924256128	56.50724214526917	74.7869487993451	0	0
10.17999999999987	-1.910626474860423	-1.315999863303929	42.80483742785894	0	0.9399999999999999	0	44.04856488499514	-9.998921586046501	-9.988379407206018	53.18670473399644	0.9282831158942927	0	0	0	44.04856488499514	-9.998921586046501	-9.988379407206018	53.18670473399644	0.9282831158942927	0	0	0	-2.024098016964421	-0.0300863262148989	3.592514861947527	71.42458750300483	1.830865912958719	19.1110160732733	62.68733130303146	59.38453574938562	0	0	68.51831250977905	2.680819565670086	-2.251709618051008	60.00212547634624	75.19948257175298	0	0
10.19999999999987	-1.896533716572555	-1.364236168173786	43.1010480241336	0	0.9399999999999999	0	44.04900333957784	-9.998923318864444	-9.988391391839381	53.18726525820338	0.9282928988872409	0	0	0	44.04900333957784	-9.998923318864444	-9.988391391839381	53.18726525820338	0.9282928988872409	0	0	0	-2.05422509486529	-0.05352654600194188	3.380721417862363	71.35711406792583	1.988715154630138	19.46700195854661	62.75004667590905	57.31024066723354	0	0	65.04958473362845	2.095680423410344	-2.537305994117895	63.33400299311187	75.36823852405611	0	0
10.21999999999987	-1.89758846749567	-1.391468871738883	43.01781330695223	0	0.9399999999999999	0	44.06564371236037	-9.998966811468533	-9.988743357999878	53.21550286616721	0.9287857381190973	0	0	0	44.06564371236037	-9.998966811468533	-9.988743357999878	53.21550286616721	0.9287857381190973	0	0	0	-2.067949047518559	-0.09008202681710267	3.511035856903864	68.17469741862067	0.742498251972085	18.70152757906811	65.93362596166352	56.083463801433	0	0	61.33726186933107	1.921969689000096	-2.806141012313473	66.42220685952235	75.31040406877773	0	0
10.23999999999987	-1.903157969336026	-1.4807827928199	42.83481520195362	0	0.9399999999999999	0	44.09767952035216	-9.999047019748122	-9.989405285026004	53.27022082941468	0.9297407467377506	0	0	0	44.09767952035216	-9.999047019748122	-9.989405285026004	53.27022082941468	0.9297407467377506	0	0	0	-2.131805086457027	-0.137404553636999	3.810694625709506	61.08384672248427	-2.402939755731083	16.6719263473463	72.51543749526226	54.53365949345877	0	0	52.90323818635994	0.5601010751264843	-3.18815771651709	74.04780030482507	74.55339282548546	0	0
10.25999999999987	-1.97847761426294	-1.61071749570231	42.98097280135659	0	0.9399999999999999	0	44.11927125331228	-9.999098705089198	-9.989840448727643	53.30718242932769	0.9303858483530376	0	0	0	44.11927125331228	-9.999098705089198	-9.989840448727643	53.30718242932769	0.9303858483530376	0	0	0	-2.273661073636732	-0.1858891474059226	3.791082717668612	57.39610059494281	-4.245931339166514	16.25884436155273	75.70606654254127	52.50969061451808	0	0	48.42241175388086	-0.42631380885439	-4.128240296915606	77.43148149338103	73.67561783830241	0	0
10.27999999999987	-2.063303020623412	-1.738180905212782	43.2552017041891	0	0.9399999999999999	0	44.13765440286456	-9.999141992959629	-9.990207339272008	53.33862050899052	0.9309345463536584	0	0	0	44.13765440286456	-9.999141992959629	-9.990207339272008	53.33862050899052	0.9309345463536584	0	0	0	-2.428016551441486	-0.2209768348912456	3.624097582409755	53.66517203550273	-5.806390161444914	16.1347683036694	78.62523437943912	50.3266123944767	0	0	44.20494942383682	-1.437821453385974	-5.949181169808304	78.95112583853431	72.99710250367274	0	0
10.29999999999987	-2.097080850564659	-1.820158508399682	43.67159638800256	0	0.9399999999999999	0	44.15493384750802	-9.99918210898212	-9.990549318659601	53.36815328372673	0.9314499905100551	0	0	0	44.15493384750802	-9.99918210898212	-9.990549318659601	53.36815328372673	0.9314499905100551	0	0	0	-2.53621566714979	-0.1935832072457564	3.273779868716209	49.75323741749904	-6.937483582940887	16.19413438868828	81.04523202532083	48.60277656179726	0	0	39.82360073175222	-3.075888766866895	-8.526603873396599	81.16559244484289	72.31038313396554	0	0
